<?xml version="1.0" encoding="UTF-8" standalone="no"?>
<svg width="158px" height="96px" viewBox="0 0 158 96" version="1.1" xmlns="http://www.w3.org/2000/svg" xmlns:xlink="http://www.w3.org/1999/xlink" xmlns:sketch="http://www.bohemiancoding.com/sketch/ns">
    <!-- Generator: Sketch 3.3.3 (12081) - http://www.bohemiancoding.com/sketch -->
    <title>asknative-web-logo-new-orange</title>
    <desc>Created with Sketch.</desc>
    <defs></defs>
    <g id="asknative-web-Case-Study" stroke="none" stroke-width="1" fill="none" fill-rule="evenodd" sketch:type="MSPage">
        <g id="project-asknative-webapp" sketch:type="MSArtboardGroup" transform="translate(-810.500000, -478.500000)" fill="#FFFFFF">
            <g id="asknative-web-logo-new-orange" sketch:type="MSLayerGroup" transform="translate(720.000000, 437.000000)">
                <g id="asknative-+-beta" transform="translate(117.000000, 116.000000)">
                    <path d="M64.6621331,14.7839581 C64.3774793,14.7847182 64.0651992,14.7862069 63.769176,14.7862069 C63.0885266,14.7862069 62.6286352,14.4367851 62.3894881,13.737931 C62.5734474,12.5793046 62.6654257,11.5770157 62.6654257,10.7310345 C62.6654257,9.35171724 62.4170843,8.66206897 61.9203942,8.66206897 C61.6260593,8.66206897 61.3869158,8.94712359 61.2029565,9.51724138 C61.0189972,10.0873592 60.9270189,10.7402262 60.9270189,11.4758621 C60.9270189,12.2298888 61.0052004,12.8781582 61.1615658,13.4206897 C61.3179312,13.9632211 61.3961128,14.3724124 61.3961128,14.6482759 C61.3961128,15.328739 61.2029584,16.128731 60.8166439,17.0482759 C60.3383496,18.1149479 59.8140735,18.6482759 59.2437996,18.6482759 C58.7287135,18.6482759 58.333207,18.1425338 58.057268,17.1310345 C57.799725,16.1930988 57.6709554,14.9701225 57.6709554,13.462069 C57.6709554,12.7264331 57.744538,11.9126481 57.8917054,11.0206897 C58.0388729,10.1287312 58.1292089,9.84827586 58.1124555,9.71034483 C58.1124555,9.67901465 58.1113024,9.64875195 58.108996,9.61955672 C58.077457,9.22031015 57.8302683,9.02068966 57.367424,9.02068966 C56.8707339,9.02068966 56.6223926,9.29654897 56.6223926,9.84827586 C56.6223926,10.0873575 56.5856012,10.6620644 56.5120175,11.5724138 C56.4384338,12.4827632 56.4016425,13.2597669 56.4016425,13.9034483 C56.4016425,14.7274003 56.4612441,15.4893774 56.5804482,16.1893848 C55.8541058,18.0125625 55.0126888,18.9241379 54.056173,18.9241379 C53.5042951,18.9241379 53.0444037,18.5747161 52.6764851,17.8758621 C52.2901705,17.1034444 52.0970162,16.0643743 52.0970162,14.7586207 C52.0970162,13.636776 52.1935933,12.4551786 52.3867506,11.2137931 C52.5799079,9.97240759 52.7090063,9.71612781 52.6764851,9.46206897 C52.6764851,9.11264193 52.4373416,8.93793103 51.9590474,8.93793103 C51.6647125,8.93793103 51.4439646,9.24137628 51.2967972,9.84827586 C50.9472745,11.3195476 50.7725157,12.9471175 50.7725157,14.7310345 C50.7725157,15.1071216 50.7930347,15.4662106 50.8340727,15.8083021 L50.8340727,15.8083021 C50.8231313,15.8341291 50.8118103,15.8612468 50.8001095,15.8896552 C50.4321909,16.7908091 50.1194647,17.4344808 49.8619217,17.8206897 C49.3468356,18.5563255 48.7581747,18.9241379 48.0959212,18.9241379 C46.5690589,18.9241379 45.8056392,17.0207087 45.8056392,13.2137931 C45.8056392,12.3126392 45.8884196,10.9517332 46.053983,9.13103448 C49.1444994,8.83678014 50.6897345,8.49655366 50.6897345,8.11034483 C50.6897345,7.85287228 50.4505909,7.72413793 49.9722967,7.72413793 C49.6043781,7.72413793 49.0433106,7.80689572 48.2890775,7.97241379 C47.2773013,8.17471366 46.5506729,8.31264331 46.1091705,8.3862069 C46.3115258,6.19769021 46.4127019,5.07586234 46.4127019,5.02068966 C46.4127019,4.45057186 46.2195475,4.16551724 45.833233,4.16551724 C45.5021062,4.16551724 45.2629627,4.72643117 45.1157952,5.84827586 C44.9870237,6.82299338 44.8950454,7.70574317 44.8398577,8.49655172 C44.490335,8.51494262 44.1408175,8.52413793 43.7912948,8.52413793 C43.6073355,8.52413793 43.3773898,8.50574731 43.1014509,8.46896552 C42.8255119,8.43218372 42.6415553,8.4137931 42.5495757,8.4137931 C42.3104286,8.4137931 42.1908568,8.51494152 42.1908568,8.71724138 C42.1908568,9.08505931 42.8714961,9.26896552 44.232795,9.26896552 C44.3431705,9.26896552 44.5271271,9.25977021 44.7846701,9.24137931 C44.6926905,10.6390874 44.6467013,12.0551652 44.6467013,13.4896552 C44.6467013,14.2748204 44.6923374,14.9902786 44.7836101,15.6360322 C44.7440251,15.7138785 44.698389,15.8260056 44.6467013,15.9724138 C43.9844478,17.8666761 43.2394238,18.8137931 42.4116069,18.8137931 C41.9517086,18.8137931 41.5745977,18.4183948 41.2802628,17.6275862 C40.9859279,16.8919503 40.8387627,16.0459818 40.8387627,15.0896552 C40.8387627,14.5747101 40.8939496,13.8390852 41.0043252,12.8827586 C41.1147008,11.926432 41.1698878,11.4482759 41.1698878,11.4482759 C41.1698878,11.2827578 41.0135247,11.0252891 40.7007939,10.6758621 C40.5536264,9.40689021 40.0477459,8.77241379 39.1831371,8.77241379 C38.1345691,8.77241379 37.2147863,9.55401517 36.4237613,11.1172414 C35.6879241,12.5885131 35.3200109,14.1149346 35.3200109,15.6965517 C35.3200109,16.024766 35.3354034,16.3348429 35.3661883,16.626783 L35.3661883,16.626783 C34.7302133,18.0847961 34.0525757,18.8137931 33.3332603,18.8137931 C32.9653417,18.8137931 32.6250221,18.4643713 32.3122913,17.7655172 C31.9995604,17.0666632 31.8431974,16.1563274 31.8431974,15.0344828 C31.8431974,13.6367746 31.9397746,12.5103491 32.1329318,11.6551724 C32.3260891,10.7999957 32.3832467,10.5781968 32.4226663,10.4 C32.4226663,9.866664 32.0915445,9.6 31.429291,9.6 C30.9509968,9.6 30.2887532,10.4919451 29.4425404,12.2758621 C28.8538706,13.526443 28.3020009,14.9149349 27.7869149,16.4413793 L27.7869149,14.3724138 C27.7869149,13.7839051 28.0214618,11.7655172 28.0214618,11.7655172 C28.0214618,11.7655172 28.2560088,9.99540276 28.2560088,9.90344828 C28.2560088,9.64597572 28.1732283,9.42988593 28.0076649,9.25517241 C27.8421016,9.0804589 27.6765407,8.99310345 27.5109773,8.99310345 C27.0694749,8.99310345 26.8487271,9.60918924 26.8487271,10.8413793 C26.8487271,11.1908063 26.8579249,12.0459702 26.8763208,13.4068966 L26.8763208,15.6689655 C26.8763208,15.6991673 26.8755767,15.7382965 26.8740884,15.7863531 C26.8458282,15.8434085 26.8143797,15.9100264 26.7797427,15.9862069 C26.6417732,16.2896567 26.5176025,16.5885043 26.4072269,16.8827586 C26.112892,17.5080491 25.7725724,18.0045959 25.3862579,18.3724138 C24.8343799,18.868968 24.2089277,19.1172414 23.5098823,19.1172414 C22.6820654,19.1172414 21.9186457,18.6206946 21.2196003,17.6275862 C20.5757427,16.7264323 20.2538188,15.8528778 20.2538188,15.0068966 C20.2538188,14.7862058 20.3641927,14.6758621 20.5849439,14.6758621 C20.6033398,14.6758621 20.6907192,14.689655 20.8470846,14.7172414 C21.00345,14.7448277 21.1828076,14.7586207 21.3851629,14.7586207 C22.2497716,14.7586207 23.1189663,14.2896599 23.9927731,13.3517241 C24.8665798,12.4137884 25.3034766,11.5310386 25.3034766,10.7034483 C25.3034766,10.4091939 25.1379157,10.1241393 24.8067889,9.84827586 C24.4756622,9.57241241 24.162936,9.43448276 23.8686011,9.43448276 C23.5006825,9.43448276 23.0039998,9.60919366 22.3785382,9.95862069 C21.7530765,10.3080477 21.1920091,10.731032 20.6953189,11.2275862 C19.6651468,12.2206946 18.855738,13.3425225 18.2670682,14.5931034 L18.2394744,13.1862069 C19.7479407,9.47124579 20.5021626,5.97702786 20.5021626,2.70344828 C20.5021626,0.901140414 20.1894365,0 19.5639748,0 C18.9569091,0 18.4326329,0.873554483 17.9911306,2.62068966 C17.604816,4.23908855 17.4116616,5.95861159 17.4116616,7.77931034 C17.4116616,8.77241876 17.4300573,10.0459692 17.4668492,11.6 C17.503641,13.1540308 17.5220367,14.1149407 17.5220367,14.4827586 C17.5220367,14.826669 17.4994727,15.291568 17.4543442,15.8774627 L17.4543442,15.8774627 C17.4072557,15.889318 17.372029,15.9195416 17.3564741,15.9724138 C16.7862003,17.53564 16.0411762,18.5379288 15.1213797,18.9793103 C14.9190244,19.0712648 14.624694,19.1172414 14.2383794,19.1172414 C14.9926126,18.5471236 15.3697235,17.84828 15.3697235,17.0206897 C15.3697235,16.1195357 15.0661952,15.2367859 14.4591295,14.3724138 C14.1463987,13.9494232 13.5853312,13.3333374 12.7759102,12.5241379 C12.1688445,11.9356292 11.8653162,11.5218403 11.8653162,11.2827586 C11.8653162,10.9885043 12.0124814,10.5977036 12.3068163,10.1103448 C12.6011512,9.62298607 12.7483165,9.31494317 12.7483165,9.1862069 C12.7483165,9.00229793 12.6747338,8.83678234 12.5275664,8.68965517 C12.3803989,8.542528 12.2240359,8.46896552 12.0584725,8.46896552 C11.7825335,8.46896552 11.4836041,8.809192 11.1616753,9.48965517 C10.8397465,10.1701183 10.6787846,10.7586182 10.6787846,11.2551724 C10.6787846,11.4390814 10.7339715,11.6413782 10.8443471,11.862069 C10.2740733,13.7011586 9.68541229,15.2275801 9.07834656,16.4413793 C8.75364802,17.0096842 8.61516112,17.3541492 8.61093778,17.5960919 C8.13996814,18.4078954 7.63352296,18.8137931 7.09159595,18.8137931 C6.63169767,18.8137931 6.25458674,18.4183948 5.96025185,17.6275862 C5.66591695,16.8919503 5.51875171,16.0459818 5.51875171,15.0896552 C5.51875171,14.5747101 5.57393868,13.8390852 5.68431426,12.8827586 C5.79468985,11.926432 5.84987681,11.4482759 5.84987681,11.4482759 C5.84987681,11.2827578 5.69351375,11.0252891 5.38078292,10.6758621 C5.23361547,9.40689021 4.72773496,8.77241379 3.8631262,8.77241379 C2.81455813,8.77241379 1.89477538,9.55401517 1.10375034,11.1172414 C0.367913102,12.5885131 0,14.1149346 0,15.6965517 C0,17.0390872 0.257539171,18.0781572 0.77262524,18.8137931 C1.21412758,19.4390836 1.7200081,19.7517241 2.29028196,19.7517241 C3.21007851,19.7517241 3.9734982,18.859779 4.58056392,17.0758621 L4.6633452,17.0758621 C5.16003533,18.8965608 5.92345502,19.8068966 6.95362716,19.8068966 C7.45031729,19.8068966 7.96539564,19.4574748 8.49887763,18.7586207 C8.65972358,18.5539637 8.8060402,18.3434982 8.9378281,18.1272231 L8.9378281,18.1272231 C9.1180211,18.262825 9.35985245,18.4107421 9.63022174,18.6482759 C10.4943756,19.4074808 11.359426,19.8344828 12.2792226,19.8344828 C13.2726028,19.963219 14.2015834,19.8896566 15.0661922,19.6137931 C15.7073199,19.4259278 16.6286643,18.5561307 17.2847393,17.7671024 C17.2785301,17.8377968 17.2727575,17.9047217 17.2674215,17.9678774 C17.2348106,18.3538489 17.2185053,18.599038 17.2185053,18.7034483 C17.2185053,19.4390841 17.4300554,19.8068966 17.8531618,19.8068966 C18.2026845,19.8068966 18.3774432,19.613795 18.3774432,19.2275862 C18.3774432,19.080459 18.3682454,18.7770138 18.3498494,18.3172414 L18.3498494,17.4344828 C18.3682454,16.8459741 18.4740204,16.2482789 18.6671777,15.6413793 C18.8603349,15.0344797 19.0580882,14.7310345 19.2604435,14.7310345 C19.3524231,14.7310345 19.4168079,14.8505735 19.4535998,15.0896552 C19.5639754,16.0643727 19.904295,17.020685 20.4745688,17.9586207 C21.3023857,19.3011561 22.3509381,19.9724138 23.6202573,19.9724138 C24.6688254,19.9724138 25.5518168,19.4298905 26.2692581,18.3448276 C26.5014244,17.99293 26.6817575,17.4611948 26.810258,16.9543747 L26.810258,16.9543747 C26.8049992,17.0370808 26.7994263,17.1235536 26.7935396,17.2137931 C26.7383518,18.0597743 26.7107583,18.6022977 26.7107583,18.8413793 C26.7107583,19.4850607 26.9131105,19.8068966 27.317821,19.8068966 C27.4281966,19.8068966 27.5339716,19.774713 27.6351492,19.7103448 C27.7363268,19.6459767 27.8145083,19.52184 27.8696961,19.337931 C27.9984677,18.8229859 28.1272372,18.2988532 28.2560088,17.7655172 C28.5135518,16.6988452 28.771091,15.8023025 29.028634,15.0758621 C29.286177,14.3494217 29.6172988,13.5816132 30.0220093,12.7724138 C30.4083239,12.0551688 30.6382695,11.6965517 30.7118533,11.6965517 C30.7670411,11.6965517 30.7624422,12.326433 30.6980564,13.0896552 C30.6336706,13.8528774 30.6014782,14.5195374 30.6014782,15.0896552 C30.6014782,16.4505815 30.8636163,17.5724094 31.3879004,18.4551724 C31.9121844,19.3379354 32.5514334,19.7793103 33.3056666,19.7793103 C33.8391486,19.7793103 34.3726226,19.4206932 34.9061046,18.7034483 C35.1503839,18.3493402 35.3622234,17.9790215 35.5416258,17.592487 C35.6697447,18.0650405 35.8534146,18.4721415 36.0926362,18.8137931 C36.5341385,19.4390836 37.040019,19.7517241 37.6102929,19.7517241 C38.5300895,19.7517241 39.2935091,18.859779 39.9005749,17.0758621 L39.9833561,17.0758621 C40.4800463,18.8965608 41.243466,19.8068966 42.2736381,19.8068966 C42.7703282,19.8068966 43.2854066,19.4574748 43.8188886,18.7586207 C44.2235991,18.2436756 44.5363252,17.691957 44.7570764,17.1034483 C44.8078761,16.984948 44.8755458,16.762359 44.9449504,16.5107125 L44.9449504,16.5107125 C45.1089906,17.2162404 45.340699,17.8184152 45.6400766,18.3172414 C46.2471424,19.3287407 47.0565512,19.8344828 48.0683274,19.8344828 C48.712185,19.8344828 49.3284394,19.4758657 49.9171092,18.7586207 C50.3954034,18.2068938 50.7449209,17.590808 50.9656721,16.9103448 C50.9818175,16.8578865 50.9970773,16.8064243 51.0114514,16.7559582 C51.1724102,17.3713339 51.4146918,17.9193463 51.7382973,18.4 C52.3821549,19.3563266 53.1271789,19.8344828 53.9733917,19.8344828 C55.1135981,19.8344828 56.0515563,18.9338816 56.7872944,17.1326524 L56.7872944,17.1326524 C56.8740532,17.4507802 56.9754505,17.753689 57.0914864,18.0413793 C57.6065725,19.347133 58.3148052,20 59.2162059,20 C60.3935454,20 61.3593173,18.3448441 62.1135505,15.0344828 C62.6102406,15.4390825 63.2264951,15.6413793 63.9623323,15.6413793 C64.209173,15.6413793 64.4560128,15.5977461 64.6736325,15.5206872 C64.7451539,16.8405195 65.0993462,17.8922358 65.7362168,18.6758621 C66.3800744,19.4666706 67.1894832,19.862069 68.1644676,19.862069 C68.9554926,19.862069 69.6729231,19.6046003 70.3167807,19.0896552 C71.034222,18.5379283 71.5401026,17.7839128 71.8344374,16.8275862 C71.944813,16.4781592 72,16.1747139 72,15.9172414 C72,15.7149415 71.9632087,15.6137931 71.889625,15.6137931 C71.7976453,15.6137931 71.6780736,15.8068946 71.5309061,16.1931034 C70.8134648,18.0138022 69.8384951,18.9241379 68.6059677,18.9241379 C67.8701305,18.9241379 67.2446782,18.5977044 66.7295921,17.9448276 C66.214506,17.2919508 65.947769,16.6325181 65.9293731,15.4738916 C66.1317284,15.5106734 66.3524762,15.529064 66.5916233,15.529064 C67.2722728,15.529064 67.8609337,14.8873603 68.3576239,14.0965517 C68.854314,13.3057432 69.1026554,12.4229934 69.1026554,11.4482759 C69.1026554,10.5471219 68.9462923,9.84827834 68.6335615,9.35172414 C68.3576225,8.91034262 68.0173029,8.68965517 67.6125924,8.68965517 C66.7847755,8.68965517 66.0765428,9.39769407 65.487873,10.8137931 C64.9636112,12.0542065 64.6883669,13.3775828 64.6621331,14.7839581 L64.6621331,14.7839581 Z M4.85650151,10.4551724 C4.80131371,9.84827283 4.54377454,9.54482759 4.08387627,9.54482759 C3.45841461,9.54482759 2.83296234,10.1517181 2.20750068,11.3655172 C1.54524717,12.6712709 1.21412538,14.1057393 1.21412538,15.6689655 C1.21412538,16.5701194 1.33369713,17.3149396 1.57284424,17.9034483 C1.81199134,18.491957 2.11551965,18.7862069 2.48343827,18.7862069 C3.0353162,18.7862069 3.55039454,17.8574806 4.02868875,16 C4.45179516,14.2896466 4.6633452,12.6069048 4.6633452,10.9517241 C4.6633452,10.7310334 4.72772999,10.5655178 4.85650151,10.4551724 C4.85650151,10.4551724 4.72772999,10.5655178 4.85650151,10.4551724 Z M8.9378281,18.1272231 C9.13763665,17.7993203 9.3040484,17.4580633 9.43706543,17.1034483 C9.6026288,16.7172394 9.68540925,16.3310364 9.68540925,15.9448276 C9.68540925,15.6505732 9.68540925,15.9448276 9.68540925,15.9448276 C9.68540925,15.6505732 9.64861794,15.5034483 9.57503422,15.5034483 C9.51984643,15.5034483 9.43706598,15.6597686 9.32669039,15.9724138 C9.09797848,16.6266049 8.85939458,17.1678305 8.61093778,17.5960919 C8.60678975,17.8337199 8.73215923,17.9724496 8.9378281,18.1272231 L8.9378281,18.1272231 Z M14.0176293,16.8827586 C14.0176293,16.1471228 13.6773097,15.3471308 12.9966603,14.4827586 C12.4263864,13.8206863 11.8469233,13.158624 11.2582535,12.4965517 C10.6695837,14.5195503 10.0809227,16.110339 9.49225294,17.2689655 C9.93375529,18.2252921 10.8167467,18.7034483 12.1412538,18.7034483 C12.6931317,18.7034483 13.1438252,18.5379327 13.4933479,18.2068966 C13.8428706,17.8758604 14.0176293,17.4344855 14.0176293,16.8827586 C14.0176293,16.8827586 14.0176293,17.4344855 14.0176293,16.8827586 Z M17.4543442,15.8774627 C17.6857002,15.8192146 18.2033953,16.2043724 18.0811157,16.5252685 C18.0392413,16.7545913 17.7205034,17.2430309 17.2847393,17.7671024 C17.3074232,17.5088357 17.3359337,17.2002616 17.370271,16.8413793 C17.4038763,16.4901472 17.4319007,16.168842 17.4543442,15.8774627 L17.4543442,15.8774627 Z M19.4535998,1.51724138 C19.1592649,1.51724138 18.8557366,2.30803807 18.5430057,3.88965517 C18.2486709,5.37931779 18.1015056,6.76780966 18.1015056,8.05517241 C18.1015056,8.6804629 18.1199013,9.62757986 18.1566931,10.8965517 C18.6349873,10.1976977 19.0580874,9.01150262 19.426006,7.33793103 C19.7571328,5.77470483 19.9226937,4.38621297 19.9226937,3.17241379 C19.9226937,2.06896 19.7663306,1.51724138 19.4535998,1.51724138 Z M23.7030386,10.2344828 C23.059181,10.2344828 22.2405744,10.6482717 21.2471941,11.4758621 C20.3273975,12.2850615 19.8675062,12.8735614 19.8675062,13.2413793 C19.8675062,13.296552 20,14 20.9712565,13.9034483 C21.6106683,13.8398849 22.3187479,13.5126476 23.082179,12.7310345 C23.8456102,11.9494214 24.22732,11.2735661 24.22732,10.7034483 C24.22732,10.390803 24.0525613,10.2344828 23.7030386,10.2344828 Z M26.810258,16.9543747 C26.9973956,16.2162839 27.0746035,15.5310345 27.0418834,15.5310345 C27.0143281,15.5310345 26.9583967,15.6161401 26.8740884,15.7863531 C26.8674805,15.999715 26.8462038,16.3890536 26.810258,16.9543747 L26.810258,16.9543747 Z M35.3661883,16.626783 C35.4621188,16.4068563 35.5571014,16.1703424 35.6511361,15.9172414 C35.7431157,15.6781597 35.8166983,15.5586207 35.8718861,15.5586207 C35.9454698,15.5586207 35.9822612,15.6965503 35.9822612,15.9724138 C35.9822612,16.285059 35.9178764,16.6252855 35.7891048,16.9931034 C35.7149213,17.1970525 35.6324284,17.3968468 35.5416258,17.592487 C35.4613232,17.2962993 35.4028441,16.9743982 35.3661883,16.626783 L35.3661883,16.626783 Z M40.1765125,10.4551724 C40.1213247,9.84827283 39.8637855,9.54482759 39.4038872,9.54482759 C38.7784256,9.54482759 38.1529733,10.1517181 37.5275116,11.3655172 C36.8652581,12.6712709 36.5341363,14.1057393 36.5341363,15.6689655 C36.5341363,16.5701194 36.6537081,17.3149396 36.8928552,17.9034483 C37.1320023,18.491957 37.4355306,18.7862069 37.8034492,18.7862069 C38.3553272,18.7862069 38.8704055,17.8574806 39.3486997,16 C39.7718061,14.2896466 39.9833561,12.6069048 39.9833561,10.9517241 C39.9833561,10.7310334 40.0477409,10.5655178 40.1765125,10.4551724 C40.1765125,10.4551724 40.0477409,10.5655178 40.1765125,10.4551724 Z M44.9449504,16.5107125 C45.1017451,15.9422083 45.2673948,15.2254029 45.2673948,15.2254029 C45.2673948,15.2254029 44.9686289,15.5034483 44.8950452,15.5034483 C44.8657012,15.5034483 44.8285563,15.5476427 44.7836101,15.6360322 C44.8270519,15.9433827 44.880832,16.2349427 44.9449504,16.5107125 L44.9449504,16.5107125 Z M52.2043347,7.03842365 C51.7031123,7.03842365 51.4525048,6.78095496 51.4525048,6.26600985 C51.4525048,5.73267385 51.7031123,5.46600985 52.2043347,5.46600985 C52.6912366,5.46600985 52.9346838,5.73267385 52.9346838,6.26600985 C52.9346838,6.78095496 52.6912366,7.03842365 52.2043347,7.03842365 Z M50.8340727,15.8083021 C50.9435449,15.5498926 51.0150045,15.4206897 51.0484533,15.4206897 C51.140433,15.4206897 51.1864221,15.5218381 51.1864221,15.7241379 C51.1864221,16.0024835 51.1280991,16.3464208 51.0114514,16.7559582 C50.9330123,16.4560708 50.8738861,16.1401856 50.8340727,15.8083021 L50.8340727,15.8083021 Z M56.7872944,17.1326524 C56.7875147,17.1321132 56.7877349,17.1315739 56.7879551,17.1310345 C56.9719144,16.689653 57.0638927,16.275864 57.0638927,15.8896552 C57.0638927,15.6689644 57.0271014,15.5586207 56.9535177,15.5586207 C56.8799339,15.5586207 56.76956,15.7333316 56.6223926,16.0827586 C56.608454,16.1186405 56.5944726,16.1541826 56.5804482,16.1893848 C56.6363085,16.5174154 56.7052572,16.8318377 56.7872944,17.1326524 L56.7872944,17.1326524 Z M64.6621331,14.7839581 C64.950837,14.7831872 65.211123,14.7831657 65.397208,14.786207 C65.3972079,15.1053698 65.0885236,15.3737749 64.6736325,15.5206872 C64.6645843,15.3537149 64.6600602,15.1824513 64.6600602,15.0068966 C64.6600602,14.9323534 64.6607512,14.8580406 64.6621331,14.7839581 L64.6621331,14.7839581 Z M67.9851081,9.91724138 C67.8471386,9.61379159 67.6861767,9.46206897 67.5022174,9.46206897 C67.1342987,9.46206897 66.7939791,10.0045923 66.4812483,11.0896552 C66.2053093,12.0275909 66.0305506,13.3129664 65.9569669,14.453202 C66.1041343,14.6555018 66.2880909,14.7566502 66.508842,14.7566502 C67.0055322,14.7566502 67.4102366,14.1655207 67.7229674,13.4758621 C68.0356983,12.7862034 68.1920613,11.9632232 68.1920613,11.0068966 C68.1920613,10.5839059 68.1230776,10.2206912 67.9851081,9.91724138 Z" id="asknative" stroke="#FFFFFF" sketch:type="MSShapeGroup"></path>
                    <text id="beta" sketch:type="MSTextLayer" font-family="Avenir" font-size="14" font-weight="260" sketch:alignment="middle">
                        <tspan x="75.367" y="20">beta</tspan>
                    </text>
                </g>
                <g id="beta-+-asknative" transform="translate(92.000000, 42.000000)">
                    <text id="beta" sketch:type="MSTextLayer" font-family="Avenir" font-size="14" font-weight="260" sketch:alignment="middle">
                        <tspan x="122.367" y="14">beta</tspan>
                    </text>
                    <path d="M139.203203,33.5247078 C138.590407,33.52638 137.918137,33.5296552 137.280865,33.5296552 C135.815578,33.5296552 134.825534,32.7609272 134.310704,31.2234483 C134.706727,28.67447 134.904736,26.4694346 134.904736,24.6082759 C134.904736,21.5737779 134.370112,20.0565517 133.300849,20.0565517 C132.667211,20.0565517 132.152388,20.6836719 131.756365,21.937931 C131.360341,23.1921902 131.162332,24.6284977 131.162332,26.2468966 C131.162332,27.9057554 131.33064,29.3319481 131.66726,30.5255172 C132.00388,31.7190864 132.172187,32.6193073 132.172187,33.2262069 C132.172187,34.7232259 131.756369,36.4832083 130.924719,38.5062069 C129.895058,40.8528853 128.766408,42.0262069 127.538735,42.0262069 C126.429869,42.0262069 125.578432,40.9135743 124.984396,38.6882759 C124.429963,36.6248173 124.152751,33.9342695 124.152751,30.6165517 C124.152751,28.9981528 124.311158,27.2078259 124.627977,25.2455172 C124.944796,23.2832086 125.139269,22.6662069 125.103203,22.3627586 C125.103203,22.2938322 125.10072,22.2272543 125.095755,22.1630248 C125.027859,21.2846823 124.495717,20.8455172 123.499316,20.8455172 C122.430052,20.8455172 121.895428,21.4524077 121.895428,22.6662069 C121.895428,23.1921865 121.816225,24.4565417 121.657815,26.4593103 C121.499406,28.462079 121.420203,30.1714872 121.420203,31.5875862 C121.420203,33.4002807 121.548512,35.0766302 121.805132,36.6166467 C120.241478,40.6276375 118.430094,42.6331034 116.370928,42.6331034 C115.182857,42.6331034 114.192814,41.8643755 113.400766,40.3268966 C112.569117,38.6275777 112.153299,36.3416236 112.153299,33.4689655 C112.153299,31.0009072 112.361208,28.401393 112.777033,25.6703448 C113.192857,22.9392967 113.470778,22.3754812 113.400766,21.8165517 C113.400766,21.0478122 112.885944,20.6634483 111.856283,20.6634483 C111.222645,20.6634483 110.747424,21.3310278 110.430605,22.6662069 C109.67816,25.9030047 109.301944,29.4836585 109.301944,33.4082759 C109.301944,34.2356676 109.346116,35.0256634 109.434462,35.7782645 L109.434462,35.7782645 C109.410908,35.835084 109.386536,35.8947429 109.361347,35.9572414 C108.5693,37.93978 107.89607,39.3558578 107.341637,40.2055172 C106.232771,41.8239161 104.965515,42.6331034 103.53983,42.6331034 C100.252835,42.6331034 98.6093622,38.4455591 98.6093622,30.0703448 C98.6093622,28.0878062 98.7875701,25.0938131 99.1439912,21.0882759 C105.797186,20.4409163 109.123734,19.692418 109.123734,18.8427586 C109.123734,18.276319 108.608911,17.9931034 107.57925,17.9931034 C106.787203,17.9931034 105.579349,18.1751706 103.955653,18.5393103 C101.777524,18.98437 100.213254,19.2878153 99.2627977,19.4496552 C99.6984236,14.6349185 99.9162332,12.1668972 99.9162332,12.0455172 C99.9162332,10.7912581 99.5004148,10.1641379 98.6687654,10.1641379 C97.9559231,10.1641379 97.4411002,11.3981486 97.1242814,13.8662069 C96.847065,16.0105854 96.6490562,17.952635 96.5302491,19.6924138 C95.7778044,19.7328738 95.025371,19.7531034 94.2729264,19.7531034 C93.8769028,19.7531034 93.3818809,19.7126441 92.7878456,19.6317241 C92.1938103,19.5508042 91.7977928,19.5103448 91.599781,19.5103448 C91.0849504,19.5103448 90.827539,19.7328713 90.827539,20.177931 C90.827539,20.9871305 92.292804,21.3917241 95.223378,21.3917241 C95.4609922,21.3917241 95.8570097,21.3714945 96.4114426,21.3310345 C96.2134309,24.4059924 96.1144265,27.5213635 96.1144265,30.6772414 C96.1144265,32.404605 96.2126709,33.978613 96.4091607,35.3992708 C96.323943,35.5705328 96.2256985,35.8172123 96.1144265,36.1393103 C94.6887418,40.3066875 93.0848707,42.3903448 91.3027649,42.3903448 C90.3127061,42.3903448 89.50087,41.5204685 88.8672324,39.7806897 C88.2335948,38.1622908 87.9167807,36.3011599 87.9167807,34.1972414 C87.9167807,33.0643622 88.035586,31.4459875 88.2732001,29.342069 C88.5108142,27.2381504 88.6296195,26.1862069 88.6296195,26.1862069 C88.6296195,25.8220671 88.2930046,25.255636 87.6197646,24.4868966 C87.3029458,21.6951585 86.2138974,20.2993103 84.3525869,20.2993103 C82.0952529,20.2993103 80.115165,22.0188334 78.4122639,25.457931 C76.8281698,28.6947288 76.0361347,32.0528562 76.0361347,35.5324138 C76.0361347,36.2544851 76.0692711,36.9366544 76.1355442,37.5789226 L76.1355442,37.5789226 C74.7664313,40.7865514 73.3076282,42.3903448 71.7591021,42.3903448 C70.9670551,42.3903448 70.2344226,41.6216169 69.5611826,40.0841379 C68.8879426,38.546659 68.5513277,36.5439204 68.5513277,34.0758621 C68.5513277,31.0009042 68.7592369,28.522768 69.1750616,26.6413793 C69.5908863,24.7599906 69.7139338,24.272033 69.7987955,23.88 C69.7987955,22.7066608 69.0859639,22.12 67.6602792,22.12 C66.6306181,22.12 65.2049548,24.0822792 63.3832466,28.0068966 C62.1159714,30.7581747 60.9279187,33.8128568 59.8190528,37.1710345 L59.8190528,32.6193103 C59.8190528,31.3245912 60.3239803,26.8841379 60.3239803,26.8841379 C60.3239803,26.8841379 60.8289077,22.9898861 60.8289077,22.7875862 C60.8289077,22.2211466 60.6506998,21.745749 60.2942787,21.3613793 C59.9378575,20.9770096 59.5814417,20.7848276 59.2250205,20.7848276 C58.2745641,20.7848276 57.799343,22.1402163 57.799343,24.8510345 C57.799343,25.619774 57.8191439,27.5011345 57.8587462,30.4951724 L57.8587462,35.4717241 C57.8587462,35.5381681 57.8571442,35.6242523 57.8539402,35.7299769 C57.7931024,35.8554986 57.7254007,36.002058 57.6508349,36.1696552 C57.3538173,36.8372447 57.0865054,37.4947094 56.8488913,38.142069 C56.2152537,39.517708 55.4826212,40.6101109 54.6509718,41.4193103 C53.4629013,42.5117296 52.1164415,43.057931 50.6115521,43.057931 C48.8294463,43.057931 47.1859734,41.9655282 45.681084,39.7806897 C44.2950017,37.798151 43.601971,35.8763311 43.601971,34.0151724 C43.601971,33.5296527 43.8395815,33.2868966 44.3148097,33.2868966 C44.3544121,33.2868966 44.5425204,33.3172411 44.8791404,33.377931 C45.2157604,33.438621 45.6018776,33.4689655 46.0375034,33.4689655 C47.8988139,33.4689655 49.769997,32.4372517 51.6511087,30.3737931 C53.5322204,28.3103345 54.4727621,26.368285 54.4727621,24.5475862 C54.4727621,23.9002266 54.1163463,23.2731065 53.403504,22.6662069 C52.6906616,22.0593073 52.0174318,21.7558621 51.3837941,21.7558621 C50.5917471,21.7558621 49.5224997,22.140226 48.1760197,22.9089655 C46.8295398,23.677705 45.6216862,24.6082704 44.5524227,25.7006897 C42.334691,27.8855282 40.5922137,30.3535495 39.3249384,33.1048276 L39.2655352,30.0096552 C42.512928,21.8367407 44.1366001,14.1494613 44.1366001,6.94758621 C44.1366001,2.98250891 43.4633702,1 42.1168902,1 C40.8100126,1 39.6813625,2.92181986 38.7309061,6.76551724 C37.8992567,10.3259948 37.4834383,14.1089455 37.4834383,18.1144828 C37.4834383,20.2993213 37.52304,23.1011323 37.6022447,26.52 C37.6814494,29.9388677 37.7210512,32.0528695 37.7210512,32.862069 C37.7210512,33.51982 37.6843396,34.378737 37.6109158,35.4388301 L37.6109158,35.4388301 C37.5325404,35.6077311 37.4504458,35.8412242 37.3646318,36.1393103 C36.1369589,39.578408 34.5330877,41.7834434 32.5529702,42.7544828 C32.1173443,42.9567826 31.4837162,43.057931 30.6520668,43.057931 C32.2757632,41.8036719 33.0875992,40.266216 33.0875992,38.4455172 C33.0875992,36.4629786 32.4341702,34.520929 31.1272926,32.6193103 C30.4540527,31.688731 29.2461991,30.3333422 27.5036956,28.5531034 C26.196818,27.2583843 25.543389,26.3480486 25.543389,25.822069 C25.543389,25.1747094 25.8602031,24.3149479 26.4938407,23.2427586 C27.1274783,22.1705694 27.4442924,21.492875 27.4442924,21.2096552 C27.4442924,20.8050554 27.2858853,20.4409212 26.9690665,20.1172414 C26.6522477,19.7935616 26.3156328,19.6317241 25.9592116,19.6317241 C25.3651763,19.6317241 24.7216478,20.3802224 24.0286066,21.8772414 C23.3355655,23.3742604 22.9890501,24.6689601 22.9890501,25.7613793 C22.9890501,26.165979 23.1078554,26.6110321 23.3454695,27.0965517 C22.1177966,31.142549 20.8505403,34.5006763 19.5436627,37.1710345 C19.464458,37.0901145 19.306051,37.0496552 19.0684369,37.0496552 C18.5536063,37.0496552 18.2961949,37.4137895 18.2961949,38.142069 C18.2961949,38.551546 18.4192019,38.9978024 18.6652172,39.4808404 C17.6153031,41.4205166 16.4824459,42.3903448 15.2666302,42.3903448 C14.2765714,42.3903448 13.4647354,41.5204685 12.8310977,39.7806897 C12.1974601,38.1622908 11.880646,36.3011599 11.880646,34.1972414 C11.880646,33.0643622 11.9994513,31.4459875 12.2370654,29.342069 C12.4746795,27.2381504 12.5934848,26.1862069 12.5934848,26.1862069 C12.5934848,25.8220671 12.2568699,25.255636 11.5836299,24.4868966 C11.2668111,21.6951585 10.1777628,20.2993103 8.31645223,20.2993103 C6.0591182,20.2993103 4.07903032,22.0188334 2.37612921,25.457931 C0.792035149,28.6947288 0,32.0528562 0,35.5324138 C0,38.4859918 0.554424604,40.7719459 1.66329045,42.3903448 C2.61374688,43.7659839 3.70279521,44.4537931 4.93046811,44.4537931 C6.91058568,44.4537931 8.55405862,42.4915139 9.86093622,38.5668966 L10.0391459,38.5668966 C11.1084094,42.5724338 12.7518823,44.5751724 14.969614,44.5751724 C16.0388775,44.5751724 17.1477267,43.8064445 18.2961949,42.2689655 C18.7098301,41.7311202 19.0788317,41.1750399 19.4032021,40.6007207 L19.4032021,40.6007207 C19.7598609,41.0501113 20.2027024,41.5252729 20.7317273,42.0262069 C22.5534355,43.7659857 24.4543199,44.6358621 26.4344374,44.6358621 C28.5729644,44.9190819 30.5728532,44.7572444 32.4341637,44.1503448 C34.5180275,43.5263301 36.1292309,41.9532397 37.2678125,39.4310326 C37.1343474,40.9253602 37.0676157,41.8308715 37.0676157,42.1475862 C37.0676157,43.7659851 37.5230359,44.5751724 38.43389,44.5751724 C39.1863346,44.5751724 39.5625513,44.1503491 39.5625513,43.3006897 C39.5625513,42.9770099 39.5427504,42.3094303 39.5031481,41.297931 L39.5031481,39.3558621 C39.5427504,38.061143 39.7704606,36.7462136 40.1862852,35.4110345 C40.6021099,34.0758554 41.0278288,33.4082759 41.4634547,33.4082759 C41.6614665,33.4082759 41.8000726,33.6712617 41.8792773,34.1972414 C42.1168914,36.3416199 42.8495239,38.4455069 44.0771968,40.5089655 C45.8593026,43.4625435 48.1166028,44.9393103 50.8491651,44.9393103 C53.1064991,44.9393103 55.0073835,43.7457591 56.5518752,41.3586207 C57.0003036,40.6640221 57.3668327,39.9883207 57.6514634,39.3315138 L57.6514634,39.3315138 C57.5520386,40.9300368 57.5023269,41.9698678 57.5023269,42.4510345 C57.5023269,43.8671335 57.9379462,44.5751724 58.8091979,44.5751724 C59.046812,44.5751724 59.2745221,44.5043685 59.4923351,44.3627586 C59.710148,44.2211487 59.8784555,43.948048 59.9972625,43.5434483 C60.274479,42.410569 60.5516913,41.2574771 60.8289077,40.0841379 C61.3833407,37.7374595 61.9377653,35.7650655 62.4921982,34.1668966 C63.0466311,32.5687276 63.7594627,30.8795491 64.6307145,29.0993103 C65.4623639,27.5213714 65.9573858,26.7324138 66.1157952,26.7324138 C66.2346023,26.7324138 66.2247019,28.1181525 66.0860936,29.7972414 C65.9474854,31.4763302 65.8781823,32.9429822 65.8781823,34.1972414 C65.8781823,37.1912793 66.4425074,39.6593006 67.5711744,41.6013793 C68.6998414,43.543458 70.0760025,44.5144828 71.6996989,44.5144828 C72.8481671,44.5144828 73.996618,43.7255251 75.1450862,42.1475862 C75.6709653,41.3685485 76.1270088,40.5538472 76.5132222,39.7034714 C76.7890338,40.7430891 77.1844342,41.6387113 77.6994251,42.3903448 C78.6498816,43.7659839 79.7389299,44.4537931 80.9666028,44.4537931 C82.9467204,44.4537931 84.5901933,42.4915139 85.8970709,38.5668966 L86.0752806,38.5668966 C87.1445441,42.5724338 88.788017,44.5751724 91.0057487,44.5751724 C92.0750122,44.5751724 93.1838614,43.8064445 94.3323296,42.2689655 C95.2035813,41.1360863 95.8768112,39.9223053 96.3520394,38.6275862 C96.5335261,38.1949466 96.6688064,37.7623104 96.7578809,37.3296741 L96.7578809,37.3296741 C97.1109414,38.8792039 97.6092947,40.201953 98.2529428,41.297931 C99.5598204,43.5232295 101.302298,44.6358621 103.480427,44.6358621 C104.866509,44.6358621 106.193168,43.8469044 107.460443,42.2689655 C108.490105,41.0551663 109.242538,39.6997776 109.717766,38.2027586 C109.752524,38.0873503 109.785375,37.9741335 109.816319,37.8631081 C110.162828,39.2169346 110.684406,40.4225618 111.381057,41.48 C112.767139,43.5839186 114.37101,44.6358621 116.192718,44.6358621 C118.647329,44.6358621 120.666545,42.6545396 122.250425,38.6918353 L122.250425,38.6918353 C122.437198,39.3917165 122.655484,40.0581158 122.905283,40.6910345 C124.014149,43.5636925 125.538817,45 127.479332,45 C130.013883,45 132.092975,41.3586571 133.716671,34.0758621 C134.785935,34.9659815 136.112594,35.4110345 137.696688,35.4110345 C138.228081,35.4110345 138.759472,35.3150413 139.227959,35.1455119 C139.381929,38.0491428 140.144426,40.3629188 141.515467,42.0868966 C142.901549,43.8266754 144.644026,44.6965517 146.742951,44.6965517 C148.445852,44.6965517 149.990321,44.1301206 151.376403,42.9972414 C152.920895,41.7834422 154.009943,40.1246082 154.643581,38.0206897 C154.881195,37.2519502 155,36.5843706 155,36.017931 C155,35.5728713 154.920796,35.3503448 154.762387,35.3503448 C154.564375,35.3503448 154.306964,35.7751682 153.990145,36.6248276 C152.445653,40.6303649 150.34676,42.6331034 147.693403,42.6331034 C146.109309,42.6331034 144.762849,41.9149497 143.653983,40.4786207 C142.545117,39.0422917 141.970892,37.5915398 141.931289,35.0425616 C142.366915,35.1234815 142.842136,35.1639409 143.356967,35.1639409 C144.822254,35.1639409 146.08951,33.7521926 147.158774,32.0124138 C148.228037,30.272635 148.762661,28.3305854 148.762661,26.1862069 C148.762661,24.2036682 148.426046,22.6662124 147.752806,21.5737931 C147.158771,20.6027538 146.426138,20.1172414 145.554886,20.1172414 C143.772781,20.1172414 142.248113,21.674927 140.980838,24.7903448 C139.852218,27.5192543 139.259679,30.4306822 139.203203,33.5247078 L139.203203,33.5247078 Z M10.4549685,24.0013793 C10.3361615,22.6662002 9.78173686,21.9986207 8.79167807,21.9986207 C7.44519812,21.9986207 6.09873837,23.3337798 4.75225842,26.0041379 C3.32657376,28.876796 2.61374213,32.0326265 2.61374213,35.4717241 C2.61374213,37.4542628 2.87115355,39.0928671 3.38598412,40.3875862 C3.90081469,41.6823053 4.55424369,42.3296552 5.34629072,42.3296552 C6.53436126,42.3296552 7.64321047,40.2864572 8.67287161,36.2 C9.5837257,32.4372226 10.0391459,28.7351906 10.0391459,25.0937931 C10.0391459,24.6082734 10.1777521,24.2441391 10.4549685,24.0013793 C10.4549685,24.0013793 10.1777521,24.2441391 10.4549685,24.0013793 Z M19.4032021,40.6007207 C19.7620625,39.9653347 20.0662957,39.307625 20.3159047,38.6275862 C20.6723259,37.7779268 20.8505338,36.9282801 20.8505338,36.0786207 C20.8505338,35.4312611 20.8505338,36.0786207 20.8505338,36.0786207 C20.8505338,35.4312611 20.7713303,35.1075862 20.6129209,35.1075862 C20.4941138,35.1075862 20.3159059,35.4514908 20.0782918,36.1393103 C19.6252597,37.4635552 19.1542354,38.5773979 18.6652172,39.4808404 C18.8453008,39.834425 19.0912956,40.2077181 19.4032021,40.6007207 L19.4032021,40.6007207 Z M30.176841,38.142069 C30.176841,36.5236701 29.4442084,34.7636877 27.9789214,32.862069 C26.7512485,31.40551 25.5037932,29.9489728 24.2365179,28.4924138 C22.9692427,32.9430108 21.7019864,36.4427459 20.4347112,38.9917241 C21.3851676,41.0956427 23.286052,42.1475862 26.1374213,42.1475862 C27.3254918,42.1475862 28.2957349,41.7834519 29.0481796,41.0551724 C29.8006243,40.3268929 30.176841,39.3558681 30.176841,38.142069 C30.176841,38.142069 30.176841,39.3558681 30.176841,38.142069 Z M37.6109158,35.4388301 C37.713388,35.2180002 37.8095027,35.1075862 37.8992609,35.1075862 C38.0180679,35.1075862 38.0774706,35.4312611 38.0774706,36.0786207 C38.0774706,36.0786207 38.0774706,35.4312611 38.0774706,36.0786207 C38.0774706,36.9282801 37.9190635,37.7779268 37.6022447,38.6275862 C37.4957085,38.9053245 37.384231,39.17314 37.2678125,39.4310326 C37.3048476,39.0163725 37.3470213,38.5563732 37.3943334,38.0510345 C37.4856839,37.0753248 37.557878,36.2045912 37.6109158,35.4388301 L37.6109158,35.4388301 Z M42.8891322,7.97931034 C42.8891322,5.551712 42.5525173,4.33793103 41.8792773,4.33793103 C41.2456397,4.33793103 40.5922107,6.07768375 39.9189707,9.55724138 C39.2853331,12.8344991 38.968519,15.8891812 38.968519,18.7213793 C38.968519,20.0970184 39.0081208,22.1806757 39.0873255,24.9724138 C40.1169866,23.4349348 41.027827,20.8253058 41.8198741,17.1434483 C42.5327164,13.7043506 42.8891322,10.6496685 42.8891322,7.97931034 C42.8891322,7.97931034 42.8891322,10.6496685 42.8891322,7.97931034 Z M52.1560361,24.5475862 C52.1560361,23.8597667 51.7798194,23.5158621 51.0273748,23.5158621 C49.6412925,23.5158621 47.8790143,24.4261978 45.7404873,26.2468966 C43.7603697,28.0271353 42.7703258,29.321835 42.7703258,30.1310345 C42.7703258,30.2524144 42.8693302,30.3737925 43.0673419,30.4951724 C43.4237631,30.6165523 43.6613736,30.7177007 43.7801807,30.7986207 C43.8989877,31.0009206 44.0375939,31.1829877 44.1960033,31.3448276 C44.3544127,31.5066675 44.6712268,31.5875862 45.146455,31.5875862 C46.5325373,31.5875862 48.0473045,30.7278247 49.6908021,29.0082759 C51.3342997,27.288727 52.1560361,25.8018454 52.1560361,24.5475862 C52.1560361,24.5475862 52.1560361,25.8018454 52.1560361,24.5475862 Z M57.6514634,39.3315138 C58.1460729,38.1901651 58.3933753,37.1058719 58.3933753,36.0786207 C58.3933753,35.4717211 58.3933753,36.0786207 58.3933753,36.0786207 C58.3933753,35.4717211 58.3339727,35.1682759 58.2151656,35.1682759 C58.1558451,35.1682759 58.0354374,35.3555081 57.8539402,35.7299769 C57.8376338,36.2680454 57.7798329,37.3148282 57.6805365,38.8703448 C57.6704143,39.0289139 57.6607232,39.1826369 57.6514634,39.3315138 L57.6514634,39.3315138 Z M76.1355442,37.5789226 C76.3420613,37.0950838 76.5465377,36.5747533 76.7489734,36.017931 C76.9469852,35.4919514 77.1053922,35.2289655 77.2241993,35.2289655 C77.3826087,35.2289655 77.4618122,35.5324108 77.4618122,36.1393103 C77.4618122,36.8271299 77.3232061,37.5756281 77.0459896,38.3848276 C76.8862888,38.8335155 76.7086999,39.2730629 76.5132222,39.7034714 C76.3403486,39.0518584 76.2144561,38.343676 76.1355442,37.5789226 L76.1355442,37.5789226 Z M86.4911032,24.0013793 C86.3722961,22.6662002 85.8178715,21.9986207 84.8278128,21.9986207 C83.4813328,21.9986207 82.1348731,23.3337798 80.7883931,26.0041379 C79.3627084,28.876796 78.6498768,32.0326265 78.6498768,35.4717241 C78.6498768,37.4542628 78.9072882,39.0928671 79.4221188,40.3875862 C79.9369494,41.6823053 80.5903784,42.3296552 81.3824254,42.3296552 C82.5704959,42.3296552 83.6793452,40.2864572 84.7090063,36.2 C85.6198604,32.4372226 86.0752806,28.7351906 86.0752806,25.0937931 C86.0752806,24.6082734 86.2138867,24.2441391 86.4911032,24.0013793 C86.4911032,24.0013793 86.2138867,24.2441391 86.4911032,24.0013793 Z M96.7578809,37.3296741 C96.8437395,36.9126573 96.8866685,36.4956406 96.8866685,36.0786207 C96.8866685,35.4312611 96.8866685,36.0786207 96.8866685,36.0786207 C96.8866685,35.4312611 96.807465,35.1075862 96.6490556,35.1075862 C96.5858845,35.1075862 96.5059198,35.2048139 96.4091607,35.3992708 C96.5029951,36.077711 96.6192351,36.7211786 96.7578809,37.3296741 L96.7578809,37.3296741 Z M112.384332,16.484532 C111.305311,16.484532 110.765809,15.9181009 110.765809,14.7852217 C110.765809,13.6118825 111.305311,13.0252217 112.384332,13.0252217 C113.432523,13.0252217 113.956611,13.6118825 113.956611,14.7852217 C113.956611,15.9181009 113.432523,16.484532 112.384332,16.484532 Z M109.434462,35.7782645 C109.670131,35.2097638 109.823968,34.9255172 109.895976,34.9255172 C110.093988,34.9255172 110.192992,35.1480438 110.192992,35.5931034 C110.192992,35.5931034 110.192992,35.1480438 110.192992,35.5931034 C110.192992,36.2054637 110.067436,36.9621258 109.816319,37.8631081 C109.647457,37.2033557 109.520171,36.5084083 109.434462,35.7782645 L109.434462,35.7782645 Z M122.250425,38.6918353 C122.2509,38.690649 122.251374,38.6894625 122.251848,38.6882759 C122.647871,37.7172365 122.84588,36.8069008 122.84588,35.9572414 C122.84588,35.4717217 122.766677,35.2289655 122.608267,35.2289655 C122.449858,35.2289655 122.212247,35.6133295 121.895428,36.382069 C121.865422,36.4610092 121.835323,36.5392018 121.805132,36.6166467 C121.925386,37.3383139 122.073818,38.030043 122.250425,38.6918353 L122.250425,38.6918353 Z M139.203203,33.5247078 C139.824719,33.5230118 140.385056,33.5229645 140.785656,33.5296553 C140.785656,34.2318136 140.121127,34.8223049 139.227959,35.1455119 C139.20848,34.7781727 139.198741,34.4013929 139.198741,34.0151724 C139.198741,33.8511775 139.200228,33.6876893 139.203203,33.5247078 L139.203203,33.5247078 Z M146.35683,22.817931 C146.059812,22.1503415 145.713297,21.8165517 145.317273,21.8165517 C144.525226,21.8165517 143.792594,23.010103 143.119354,25.3972414 C142.525319,27.4607 142.149102,30.288526 141.990693,32.7970443 C142.307511,33.242104 142.703529,33.4646305 143.178757,33.4646305 C144.248021,33.4646305 145.119259,32.1641455 145.792499,30.6468966 C146.465739,29.1296476 146.802354,27.319091 146.802354,25.2151724 C146.802354,24.284593 146.653848,23.4855206 146.35683,22.817931 Z" id="asknative" stroke="#FFFFFF" stroke-width="2" sketch:type="MSShapeGroup"></path>
                </g>
            </g>
        </g>
    </g>
</svg>