<?xml version="1.0" encoding="UTF-8" standalone="no"?>
<svg width="626px" height="199px" viewBox="0 0 626 199" version="1.1" xmlns="http://www.w3.org/2000/svg" xmlns:xlink="http://www.w3.org/1999/xlink" xmlns:sketch="http://www.bohemiancoding.com/sketch/ns">
    <title>asknative-light-bgs</title>
    <description>Created with Sketch (http://www.bohemiancoding.com/sketch)</description>
    <defs></defs>
    <g id="Page-4" stroke="none" stroke-width="1" fill="none" fill-rule="evenodd" sketch:type="MSPage">
        <g id="asknative-light-bgs" sketch:type="MSArtboardGroup" stroke="#DD4E33" stroke-width="8" fill="#DD4E33">
            <path d="M552.025353,139.675208 C549.717891,139.681384 547.187333,139.693431 544.788342,139.693431 C539.264797,139.693431 535.532728,136.858098 533.592023,131.187348 C535.084873,121.785841 535.831287,113.652913 535.831287,106.788321 C535.831287,95.5960511 533.81597,90 529.785275,90 C527.396715,90 525.456039,92.3130345 523.963189,96.9391727 C522.470339,101.565311 521.723925,106.862906 521.723925,112.832117 C521.723925,118.950558 522.358377,124.210846 523.6273,128.613139 C524.896222,133.015432 525.530674,136.335755 525.530674,138.574209 C525.530674,144.095729 523.963205,150.587148 520.82822,158.048662 C516.94681,166.704017 512.692251,171.03163 508.064417,171.03163 C503.884437,171.03163 500.674857,166.927859 498.435582,158.720195 C496.345592,151.109451 495.300613,141.185787 495.300613,128.948905 C495.300613,122.979694 495.897744,116.376354 497.092024,109.138686 C498.286304,101.901018 499.019391,99.6253041 498.883435,98.5060827 C498.883435,98.2518585 498.874077,98.0062962 498.855361,97.7693958 C498.599418,94.5297673 496.593455,92.9099757 492.837423,92.9099757 C488.806728,92.9099757 486.791411,95.1483961 486.791411,99.6253041 C486.791411,101.565298 486.492845,106.228674 485.895705,113.615572 C485.298566,121.00247 485,127.307354 485,132.530414 C485,139.092994 485.466004,145.171058 486.398019,150.764649 C480.438431,166.02036 473.512287,173.648101 465.619378,173.648101 C461.14551,173.648101 457.417343,170.826189 454.434765,165.182278 C451.303058,158.944273 449.737228,150.552795 449.737228,140.007595 C449.737228,130.947634 450.520143,121.405113 452.085997,111.379747 C453.65185,101.35438 454.698403,99.2846777 454.434765,97.2329114 C454.434765,94.4109564 452.496118,93 448.618767,93 C446.232704,93 444.443184,95.4506084 443.250153,100.351899 C440.416703,112.233815 439,125.377987 439,139.78481 C439,142.93126 439.178514,145.930386 439.535543,148.782194 L439.535543,148.782194 C439.501941,148.862247 439.467937,148.943652 439.433532,149.026408 C436.423537,156.330436 433.86508,161.54752 431.758083,164.677817 C427.54409,170.640288 422.72817,173.621479 417.310179,173.621479 C404.8187,173.621479 398.573054,158.193816 398.573054,127.338028 C398.573054,120.034001 399.250292,109.003595 400.60479,94.2464789 C425.888749,91.8614904 438.530538,89.1038889 438.530538,85.9735915 C438.530538,83.8867267 436.574071,82.8433099 432.661077,82.8433099 C429.651082,82.8433099 425.060909,83.5140778 418.890419,84.8556338 C410.612932,86.4953134 404.668281,87.6132599 401.056287,88.209507 C402.711784,70.4711554 403.539521,61.3785234 403.539521,60.931338 C403.539521,56.3104229 401.959297,54 398.798802,54 C396.089807,54 394.133339,58.546316 392.929341,67.6390845 C391.875843,75.5393587 391.123355,82.6942168 390.671856,89.1038732 C387.812361,89.252935 384.952908,89.3274648 382.093413,89.3274648 C380.588416,89.3274648 378.707197,89.1784052 376.449701,88.8802817 C374.192204,88.5821581 372.687229,88.4330986 371.934731,88.4330986 C369.978234,88.4330986 369,89.2529261 369,90.8926056 C369,93.8738412 374.568407,95.3644366 385.705389,95.3644366 C386.608388,95.3644366 388.113363,95.2899068 390.220359,95.1408451 C389.46786,106.46954 389.091617,117.947125 389.091617,129.573944 C389.091617,135.731292 389.441128,141.359733 390.140153,146.459287 C389.829165,147.081795 389.473806,147.952865 389.074074,149.0725 C383.672338,164.35091 377.595475,171.99 370.843305,171.99 C367.092099,171.99 364.016156,168.800865 361.615385,162.4225 C359.214613,156.489137 358.014245,149.665872 358.014245,141.9525 C358.014245,137.799146 358.464383,131.865872 359.364672,124.1525 L360.7151,112.5825 C360.7151,111.247493 359.439709,109.170847 356.888889,106.3525 C355.688503,96.1174488 351.562238,91 344.509972,91 C335.957222,91 328.454923,97.3041036 322.002849,109.9125 C316.00092,121.779226 313,134.09077 313,146.8475 C313,149.905485 313.167531,152.768264 313.502595,155.435845 L313.502595,155.435845 C308.436228,166.485464 303.048971,172.010204 297.340709,172.010204 C294.332459,172.010204 291.54987,169.199008 288.992858,163.576531 C286.435845,157.954054 285.157358,150.630147 285.157358,141.604592 C285.157358,130.359638 285.947012,121.297228 287.526343,114.417092 C289.105674,107.536955 289.573018,105.752521 289.895328,104.318878 C289.895328,100.02804 287.187944,97.8826531 281.773094,97.8826531 C277.862369,97.8826531 272.447601,105.058602 265.528626,119.410714 C260.715426,129.471989 256.203119,140.642796 251.991569,152.923469 L251.991569,136.278061 C251.991569,131.543344 253.909319,115.304847 253.909319,115.304847 C253.909319,115.304847 255.827069,101.063779 255.827069,100.32398 C255.827069,98.2525407 255.150223,96.5140376 253.79651,95.1084184 C252.442798,93.7027991 251.089106,93 249.735393,93 C246.125493,93 244.32057,97.9565831 244.32057,107.869898 C244.32057,110.681137 244.395776,117.56117 244.546188,128.510204 L244.546188,146.709184 C244.546188,147.08138 244.69397,147.608008 244.836175,148.29115 C244.637916,148.696579 244.421818,149.155238 244.18788,149.667127 C243.063026,152.128465 242.050673,154.552474 241.15079,156.939227 C238.751102,162.011075 235.976504,166.038659 232.826914,169.022099 C228.327499,173.049744 223.228239,175.063536 217.52898,175.063536 C210.779858,175.063536 204.55576,171.035952 198.856501,162.980663 C193.607184,155.671234 190.982565,148.58567 190.982565,141.723757 C190.982565,139.933693 191.882434,139.038674 193.6822,139.038674 C193.832181,139.038674 194.544577,139.150551 195.819412,139.374309 C197.094246,139.598067 198.556534,139.709945 200.206319,139.709945 C207.255403,139.709945 214.341875,135.906115 221.465948,128.298343 C228.590022,120.69057 232.152005,113.53042 232.152005,106.81768 C232.152005,104.430927 230.802201,102.118796 228.102552,99.8812155 C225.402903,97.6436352 222.853273,96.5248619 220.453585,96.5248619 C217.453975,96.5248619 213.404562,97.9419748 208.305225,100.776243 C203.205889,103.610511 198.631552,107.041416 194.582079,111.069061 C186.183171,119.12435 179.584128,128.223706 174.784752,138.367403 L174.559783,126.955801 C186.858183,96.8230538 193.007291,68.4807957 193.007291,41.9281768 C193.007291,27.3093192 190.457661,20 185.358324,20 C180.408968,20 176.134588,27.0855645 172.535056,41.2569061 C169.385466,54.3840435 167.810694,68.3314179 167.810694,83.0994475 C167.810694,91.1547364 167.960672,101.484744 168.260633,114.089779 C168.560594,126.694814 168.710572,134.488935 168.710572,137.472376 C168.710572,139.317299 167.986625,144.509163 167.178274,149.73129 L167.178274,149.731287 C162.539122,162.133902 156.497775,170.096797 149.054054,173.620209 C147.402394,174.360547 145.000016,174.73071 141.846847,174.73071 C148.003034,170.140615 151.081081,164.51413 151.081081,157.851088 C151.081081,150.595776 148.603628,143.488638 143.648649,136.529461 C141.096083,133.123906 136.51655,128.163716 129.90991,121.648742 C124.95493,116.910579 122.477477,113.579108 122.477477,111.654229 C122.477477,109.285148 123.678667,106.138758 126.081081,102.214967 C128.483495,98.2911756 129.684685,95.8110806 129.684685,94.7746074 C129.684685,93.2939314 129.08409,91.9613431 127.882883,90.7768023 C126.681676,89.5922615 125.405412,89 124.054054,89 C121.801791,89 119.361875,91.7392095 116.734234,97.2177106 C114.106593,102.696212 112.792793,107.434304 112.792793,111.432129 C112.792793,112.912805 113.243239,114.541524 114.144144,116.318335 C109.489466,131.125095 104.684709,143.414521 99.7297297,153.186982 C99.4294279,152.890847 98.8288333,152.742782 97.9279279,152.742782 C95.9759662,152.742782 95,154.07537 95,156.740587 C95,158.275438 95.4892616,159.951492 96.4677907,161.768757 C92.5607821,168.582942 88.3526383,171.99 83.8433048,171.99 C80.092099,171.99 77.0161564,168.800865 74.6153846,162.4225 C72.2146129,156.489137 71.014245,149.665872 71.014245,141.9525 C71.014245,137.799146 71.464383,131.865872 72.3646724,124.1525 L73.7150997,112.5825 C73.7150997,111.247493 72.4397089,109.170847 69.8888889,106.3525 C68.688503,96.1174488 64.5622385,91 57.5099715,91 C48.9572222,91 41.454923,97.3041036 35.002849,109.9125 C29.0009197,121.779226 26,134.09077 26,146.8475 C26,157.675887 28.1006438,166.056637 32.3019943,171.99 C35.9031519,177.033359 40.0294164,179.555 44.6809117,179.555 C52.1833234,179.555 58.4102317,172.360905 63.3618234,157.9725 L64.037037,157.9725 C68.0883393,172.657573 74.3152476,180 82.7179487,180 C86.769251,180 90.9705385,177.181695 95.3219373,171.545 C96.788249,169.700105 98.1065243,167.796688 99.2767699,165.834737 L99.2767699,165.834737 C100.615135,167.450827 102.267622,169.157582 104.234234,170.955005 C111.141176,177.321912 118.348311,180.505317 125.855856,180.505317 C133.964005,181.541791 141.546511,180.949529 148.603604,178.728515 C155.546023,176.721901 161.104796,172.033623 165.28002,164.663579 C165.64463,166.896033 166.235907,170.675396 166.235907,171.707182 C166.235907,177.674063 167.960657,180.657459 171.410208,180.657459 C174.259837,180.657459 175.684631,179.091176 175.684631,175.958564 C175.684631,174.765187 175.609642,172.303886 175.459661,168.574586 L175.459661,161.414365 C175.609642,156.64086 176.472016,151.792842 178.046812,146.870166 C179.621607,141.947489 181.233873,139.486188 182.883659,139.486188 C183.633561,139.486188 184.158485,140.455791 184.458446,142.395028 C185.358329,150.301145 188.132926,158.057973 192.782322,165.665746 C199.531444,176.555303 208.080204,182 218.428858,182 C226.977747,182 234.176702,177.599492 240.025942,168.798343 C240.311014,168.368466 240.587346,167.940553 240.854939,167.514603 L240.854939,167.514603 C241.800602,169.680115 243.192482,171.323561 243.192482,172.232143 C243.192482,177.41074 244.846995,180 248.15607,180 C249.058545,180 249.923404,179.741074 250.750672,179.223214 C251.577941,178.705355 252.217185,177.70664 252.668422,176.227041 C253.72131,172.084163 254.774181,167.867368 255.827069,163.576531 C257.932844,154.994855 260.038587,147.781917 262.144362,141.9375 C264.250137,136.093083 266.957521,129.915849 270.266596,123.405612 C273.425258,117.635175 275.305386,114.75 275.907036,114.75 C276.358274,114.75 276.320671,119.817571 275.794227,125.957908 C275.267784,132.098245 275.004566,137.461712 275.004566,142.048469 C275.004566,152.997504 277.147912,162.022924 281.434668,169.125 C285.721424,176.227076 290.948179,179.778061 297.115092,179.778061 C301.477054,179.778061 305.838951,176.892886 310.200913,171.122449 C312.186168,168.290767 312.979525,163.742949 314.421939,160.621484 C315.469644,165.08555 317.096326,168.875043 319.301994,171.99 C322.903152,177.033359 327.029416,179.555 331.680912,179.555 C339.183323,179.555 345.410232,172.360905 350.361823,157.9725 L351.037037,157.9725 C355.088339,172.657573 361.315248,180 369.717949,180 C373.769251,180 379.123499,177.626697 383.474897,171.990002 C386.775959,167.836648 394.617114,156.617895 389.07407,155.615332 C389.77467,153.999275 390.535844,153.077547 391.106175,152.129717 L391.106175,152.129717 C392.460639,158.687446 394.498098,164.211678 397.218563,168.702465 C402.185055,176.900863 408.806944,181 417.084431,181 C422.351922,181 427.189626,177.56267 432.20958,172.27993 C436.693972,167.560787 439.177534,161.929103 441.454902,157.96866 C442.741005,162.201166 444.532445,166.016668 446.829229,169.41519 C452.048741,177.138435 458.088371,181 464.948301,181 C474.194293,181 481.799754,173.722436 487.76491,159.167089 C487.841186,158.98477 487.973297,158.868849 488.149437,158.805879 L488.149437,158.805879 C488.849101,161.360792 489.665341,163.794516 490.598159,166.107056 C494.778139,176.702405 500.525525,182 507.84049,182 C517.39473,182 525.232075,168.569477 531.352759,141.708029 C535.383454,144.991095 540.384427,146.632603 546.355826,146.632603 C548.344753,146.632603 550.333672,146.283554 552.090479,145.666534 C552.619952,156.468008 555.47323,165.060573 560.650376,171.444444 C565.82584,177.814847 572.332041,181 580.169173,181 C586.527601,181 592.29446,178.925947 597.469925,174.777778 C603.236871,170.333311 607.303246,164.259298 609.669173,156.555556 C610.556395,153.740727 611,151.296307 611,149.222222 C611,147.592584 610.704264,146.777778 610.112782,146.777778 C609.37343,146.777778 608.412287,148.333318 607.229323,151.444444 C601.462377,166.111184 593.625363,173.444444 583.718045,173.444444 C577.803229,173.444444 572.77571,170.814841 568.635338,165.555556 C564.494967,160.29627 562.350878,154.984174 562.203008,145.650794 C563.829582,145.947091 565.604,146.095238 567.526316,146.095238 C572.997521,146.095238 577.729303,140.925958 581.721805,134.555556 C585.714306,128.185153 587.710526,121.074113 587.710526,113.222222 C587.710526,105.962927 586.453647,100.333353 583.93985,96.3333333 C581.721793,92.77776 578.986232,91 575.733083,91 C569.078914,91 563.385989,96.7036467 558.654135,108.111111 C554.491847,117.980412 552.282271,128.501685 552.025353,139.675208 L552.025353,139.675208 Z M65,105.38806 C64.5606039,100.462662 62.5101193,98 58.8484848,98 C53.868662,98 48.8889138,102.925324 43.9090909,112.776119 C38.6363373,123.373187 36,135.014862 36,147.701493 C36,155.014962 36.9520107,161.059678 38.8560606,165.835821 C40.7601105,170.611964 43.176753,173 46.1060606,173 C50.500022,173 54.6009911,165.462762 58.4090909,150.38806 C61.7777946,136.507393 63.4621212,122.850813 63.4621212,109.41791 C63.4621212,107.626857 63.9747423,106.283587 65,105.38806 C65,105.38806 63.9747423,106.283587 65,105.38806 Z M99.2767699,165.834737 C100.741061,163.37981 101.973587,160.833239 102.974359,158.195 C104.324793,155.079984 105,151.965016 105,148.85 C105,146.476655 105,148.85 105,148.85 C105,146.476655 104.699908,145.29 104.099715,145.29 C103.64957,145.29 102.974363,146.550821 102.074074,149.0725 C100.279804,154.147458 98.4110455,158.379541 96.4677907,161.768757 C97.159579,163.053505 98.0959047,164.408831 99.2767699,165.834737 L99.2767699,165.834737 Z M140,156.333333 C140,150.407378 137.217508,143.962998 131.652439,137 C126.989814,131.66664 122.252057,126.33336 117.439024,121 C112.625992,137.296378 107.813032,150.111064 103,159.444444 C106.609774,167.148187 113.829214,171 124.658537,171 C129.170754,171 132.855677,169.66668 135.713415,167 C138.571153,164.33332 140,160.7778 140,156.333333 C140,156.333333 140,160.7778 140,156.333333 Z M167.178274,149.731287 C167.218052,149.624944 167.257726,149.518274 167.297297,149.411278 C168.048052,146.894128 168.723721,145.635573 169.324324,145.635573 C169.774777,145.635573 170,146.820096 170,149.189177 C170,149.189177 170,146.820096 170,149.189177 C170,152.298597 169.399405,155.40797 168.198198,158.517389 C167.315032,160.739718 166.342306,162.788447 165.28002,164.663579 C165.11749,163.668431 165,162.980662 165,162.980662 C165,162.980662 166.156558,156.331802 167.178274,149.73129 L167.178274,149.731287 Z M188,46.4117647 C188,37.4705435 186.712134,33 184.136364,33 C181.712109,33 179.212134,39.4077791 176.636364,52.2235294 C174.212109,64.294178 173,75.5450459 173,85.9764706 C173,91.0431626 173.151514,98.7175956 173.454545,109 C177.393959,103.337227 180.878773,93.725558 183.909091,80.1647059 C186.636377,67.4979759 188,56.247108 188,46.4117647 C188,46.4117647 188,56.247108 188,46.4117647 Z M217.791139,102 C212.622337,102 206.050673,105.383425 198.075949,112.150376 C190.691946,118.76695 187,123.578932 187,126.586466 C187,127.037596 187,132 195.860759,132 C201.029562,132 206.678239,128.804543 212.806962,122.413534 C218.935685,116.022524 222,110.496264 222,105.834586 C222,103.278183 220.59706,102 217.791139,102 Z M240.854939,167.514603 C244.951666,160.993504 247,154.93252 247,149.331492 C247,147.093911 246.775033,145.975138 246.325091,145.975138 C246.087514,145.975138 245.591212,146.747136 244.836175,148.29115 C245.25928,150.323717 245.633014,153.741829 241.918026,158.60031 C239.299058,162.02541 239.798622,165.095701 240.854939,167.514603 L240.854939,167.514603 Z M313.502595,155.435845 C314.443664,153.383397 315.373662,151.140326 316.292589,148.706633 C317.044651,146.783154 317.646292,145.821429 318.09753,145.821429 C318.69918,145.821429 319,146.931111 319,149.15051 C319,151.665829 318.473564,154.403046 317.420677,157.362245 C316.080825,157.783265 315.16521,159.013005 314.421939,160.621484 C314.037563,158.983734 313.731115,157.255188 313.502595,155.435845 L313.502595,155.435845 Z M351,105.38806 C350.560604,100.462662 348.510119,98 344.848485,98 C339.868662,98 334.888914,102.925324 329.909091,112.776119 C324.636337,123.373187 322,135.014862 322,147.701493 C322,155.014962 322.952011,161.059678 324.856061,165.835821 C326.760111,170.611964 329.176753,173 332.106061,173 C336.500022,173 340.600991,165.462762 344.409091,150.38806 C347.777795,136.507393 349.462121,122.850813 349.462121,109.41791 C349.462121,107.626857 349.974742,106.283587 351,105.38806 C351,105.38806 349.974742,106.283587 351,105.38806 Z M391.106175,152.129717 C391.635182,151.250566 392,150.348959 392,148.85 C392,146.476655 391.699908,145.29 391.099715,145.29 C390.849436,145.29 390.529583,145.67976 390.140153,146.459287 C390.410055,148.428277 390.732062,150.31842 391.106175,152.129717 L391.106175,152.129717 Z M450.086957,78 C446.028965,78 444,75.8713663 444,71.6140351 C444,67.2046563 446.028965,65 450.086957,65 C454.029005,65 456,67.2046563 456,71.6140351 C456,75.8713663 454.029005,78 450.086957,78 Z M439.535543,148.782194 C440.530864,146.410954 441.174099,145.225352 441.465269,145.225352 C442.217768,145.225352 447.011012,149.294905 445.807014,153.170511 C444.160481,153.753436 442.846168,155.549185 441.454902,157.96866 C440.582703,155.098294 439.942918,152.036142 439.535543,148.782194 L439.535543,148.782194 Z M488.149437,158.805879 C489.697535,158.252429 494.646753,161.789242 494.981486,160.287141 C495.35329,158.618688 490.001833,150.699148 490.001833,149.141772 C490.001833,147.359485 489.70358,146.468354 489.107064,146.468354 C488.510548,146.468354 487.615788,147.879311 486.422757,150.701266 C486.414513,150.722408 486.406267,150.743536 486.398019,150.764649 C486.86489,153.566625 487.448696,156.247033 488.149437,158.805879 L488.149437,158.805879 Z M552.025353,139.675208 C554.37198,139.668928 556.487873,139.66872 558,139.693431 C557.999999,142.29287 555.476313,144.477371 552.090479,145.666534 C552.03016,144.435987 552,143.176773 552,141.888889 C552,141.148172 552.008451,140.410279 552.025353,139.675208 L552.025353,139.675208 Z M577.333333,100.696688 C576.222217,98.2322169 574.925933,97 573.444444,97 C570.481467,97 567.740753,101.406109 565.222222,110.218459 C562.999989,117.835915 561.592596,128.275106 561,137.535541 C562.185191,139.178522 563.666658,140 565.444444,140 C569.444464,140 572.703691,135.199135 575.222222,129.598065 C577.740753,123.996995 579,117.313151 579,109.546334 C579,106.111011 578.44445,103.161159 577.333333,100.696688 Z" id="asknative" sketch:type="MSShapeGroup"></path>
        </g>
    </g>
</svg>