<?xml version="1.0" encoding="UTF-8" standalone="no"?>
<svg width="596px" height="228px" viewBox="0 0 596 228" version="1.1" xmlns="http://www.w3.org/2000/svg" xmlns:xlink="http://www.w3.org/1999/xlink" xmlns:sketch="http://www.bohemiancoding.com/sketch/ns">
    <!-- Generator: Sketch 3.3.3 (12081) - http://www.bohemiancoding.com/sketch -->
    <title>Logo</title>
    <desc>Created with Sketch.</desc>
    <defs></defs>
    <g id="Page-1" stroke="none" stroke-width="1" fill="none" fill-rule="evenodd" sketch:type="MSPage">
        <g id="tool-ember-2" sketch:type="MSLayerGroup" transform="translate(-8.000000, -282.000000)" fill="#E24B31">
            <g id="Logo" transform="translate(8.000000, 282.000000)" sketch:type="MSShapeGroup">
                <path d="M411.75,170.25 C411.75,170.25 409,160.5 419.25,141.75 C429.5,123 437.5,133.25 437.5,133.25 C437.5,133.25 446.25,142.75 436.25,157 C426.25,171.25 411.75,170.25 411.75,170.25 L411.75,170.25 Z M333,183.75 C321.25,214.5 292.75,202 292.75,202 C292.75,202 289.5,191 298.75,160.25 C308,129.5 329.75,141.5 329.75,141.5 C329.75,141.5 344.75,153 333,183.75 L333,183.75 Z M311.75,55 C311.75,55 329.5,8.75 333.75,31.25 C338,53.75 296.5,120.75 296.5,120.75 C297,105.75 311.75,55 311.75,55 L311.75,55 Z M58,170.25 C58.75,140.5 78.25,127.5 85,134 C91.75,140.5 89.25,154.5 76.5,163.25 C63.75,172 58,170.25 58,170.25 L58,170.25 Z M595.75,165.31 C594.75,155.31 585.75,159.03 585.75,159.03 C585.75,159.03 571.25,170.27 558.5,169.02 C545.75,167.77 549.75,139.26 549.75,139.26 C549.75,139.26 552.5,113.13 545,110.94 C537.5,108.75 528.25,117.75 528.25,117.75 C528.25,117.75 516.75,130.5 511.25,146.75 L509.75,147.25 C509.75,147.25 511.5,118.75 509.5,112.25 C508,109 494.25,109.25 492,115 C489.75,120.75 478.75,160.75 478,177.5 C478,177.5 456.5,195.75 437.75,198.75 C419,201.75 414.5,190 414.5,190 C414.5,190 465.5,175.75 463.75,135 C462,94.25 422.62,109.32 418.17,112.67 C413.86,115.91 390.84,129.79 384.13,168.23 C383.9,169.54 383.5,175.25 383.5,175.25 C383.5,175.25 363.75,188.5 352.75,192 C352.75,192 383.5,140.25 346,116.75 C329,106.5 315.5,128 315.5,128 C315.5,128 366.25,71.5 355,23.75 C349.64,1.01 338.28,-1.43 327.84,2.25 C312,8.5 306,17.75 306,17.75 C306,17.75 285.5,47.5 280.75,91.75 C276,136 269,189.5 269,189.5 C269,189.5 259.25,199 250.25,199.5 C241.25,200 245.25,172.75 245.25,172.75 C245.25,172.75 252.25,131.25 251.75,124.25 C251.25,117.25 250.75,113.5 242.5,111 C234.25,108.5 225.25,119 225.25,119 C225.25,119 201.5,155 199.5,160.5 L198.25,162.75 L197,161.25 C197,161.25 213.75,112.25 197.75,111.5 C181.75,110.75 171.25,129 171.25,129 C171.25,129 153,159.5 152.25,163 L151,161.5 C151,161.5 158.5,126 157,117.25 C155.5,108.5 147.25,110.25 147.25,110.25 C147.25,110.25 136.75,109 134,115.75 C131.25,122.5 121.25,167.25 120,181.5 C120,181.5 93.75,200.25 76.5,200.5 C59.25,200.75 61,189.56 61,189.56 C61,189.56 124.25,167.91 107,125.16 C99.25,114.16 90.25,110.7 77.5,110.95 C64.75,111.2 48.93,118.98 38.68,141.98 C33.78,152.95 32,163.36 31,171.24 C31,171.24 19.93,173.5 13.93,168.5 C7.93,163.5 4.84,168.5 4.84,168.5 C4.84,168.5 -5.46,181.63 4.79,185.63 C15.04,189.63 31.04,191.5 31.04,191.5 L31.03,191.5 C32.5,198.5 36.78,210.39 49.26,219.87 C68.01,234.12 104,218.56 104,218.56 L118.75,210.28 C118.75,210.28 119.25,223.81 130,225.79 C140.75,227.76 145.25,225.76 164,180.26 C175,157.01 175.75,158.25 175.75,158.25 L177,158 C177,158 168.5,202.5 171.75,214.5 C175,226.5 189.25,225.25 189.25,225.25 C189.25,225.25 197,226.75 203.25,204.75 C209.5,182.75 221.5,158.5 221.5,158.5 L223,158.5 C223,158.5 217.75,204 225.75,218.5 C233.75,233 254.5,223.38 254.5,223.38 C254.5,223.38 269,216.06 271.25,213.81 C271.25,213.81 288.46,228.46 312.74,225.8 C367,215.12 386.3,200.7 386.3,200.7 C386.3,200.7 395.62,224.32 424.5,226.51 C457.5,229.01 475.5,208.25 475.5,208.25 C475.5,208.25 475.25,221.75 486.75,226.5 C498.25,231.25 506,204.56 506,204.56 L525.25,151.5 L527,151.5 C527,151.5 528,186 547,191.5 C566,197 590.75,178.62 590.75,178.62 C590.75,178.62 596.75,175.31 595.75,165.31 L595.75,165.31 Z" id="Shape"></path>
            </g>
        </g>
    </g>
</svg>